<svg width="36" height="36" viewBox="0 0 36 36" fill="none" xmlns="http://www.w3.org/2000/svg">
<path d="M18 2.25C19.2351 2.24983 20.4256 2.71135 21.3378 3.54395C22.25 4.37655 22.818 5.52007 22.9302 6.75H30.6C30.9421 6.7501 31.2713 6.88004 31.5213 7.11355C31.7712 7.34706 31.9232 7.66674 31.9465 8.00798C31.9698 8.34923 31.8627 8.68661 31.6469 8.95194C31.431 9.21727 31.1225 9.39078 30.7836 9.4374L30.6 9.45H29.5506L27.27 29.214C27.1685 30.0913 26.748 30.9007 26.0885 31.4881C25.429 32.0756 24.5766 32.4001 23.6934 32.4H12.3066C11.4235 32.4001 10.5711 32.0756 9.9116 31.4881C9.25213 30.9007 8.83161 30.0913 8.73005 29.214L6.44765 9.45H5.40005C5.07382 9.44999 4.75863 9.33184 4.51277 9.11742C4.26691 8.90299 4.10702 8.6068 4.06265 8.2836L4.05005 8.1C4.05006 7.77377 4.16821 7.45858 4.38263 7.21273C4.59705 6.96687 4.89325 6.80697 5.21645 6.7626L5.40005 6.75H13.0698C13.1821 5.52007 13.7501 4.37655 14.6623 3.54395C15.5745 2.71135 16.765 2.24983 18 2.25V2.25ZM15.3 13.5C14.859 13.5 14.49 13.779 14.4144 14.1462L14.4 14.2884V25.3134L14.4144 25.4538C14.49 25.821 14.859 26.1 15.3 26.1C15.741 26.1 16.11 25.821 16.1856 25.4538L16.2 25.3116V14.2902L16.1856 14.1462C16.11 13.7808 15.741 13.5 15.3 13.5ZM20.7 13.5C20.259 13.5 19.89 13.779 19.8144 14.1462L19.8 14.2884V25.3134L19.8144 25.4538C19.89 25.821 20.259 26.1 20.7 26.1C21.141 26.1 21.51 25.821 21.5856 25.4538L21.6 25.3116V14.2902L21.5856 14.1462C21.51 13.7808 21.141 13.5018 20.7 13.5018V13.5ZM18 4.95C16.911 4.95 16.002 5.724 15.795 6.75H20.205C19.9962 5.724 19.089 4.95 18 4.95V4.95Z" fill="#F05C5C"/>
</svg>
