<svg width="63" height="63" viewBox="0 0 63 63" fill="none" xmlns="http://www.w3.org/2000/svg">
<g clip-path="url(#clip0_947_623)">
<path d="M59.2725 14.56L49 4.23501C48.3212 3.55962 47.4026 3.18048 46.445 3.18048C45.4875 3.18048 44.5689 3.55962 43.89 4.23501L7.47254 40.6L4.14754 54.95C4.03284 55.4746 4.03677 56.0182 4.15905 56.541C4.28132 57.0639 4.51886 57.5528 4.8543 57.9721C5.18974 58.3914 5.61461 58.7305 6.09787 58.9645C6.58114 59.1986 7.11058 59.3218 7.64754 59.325C7.89774 59.3503 8.14984 59.3503 8.40004 59.325L22.9075 56L59.2725 19.67C59.9479 18.9912 60.3271 18.0726 60.3271 17.115C60.3271 16.1574 59.9479 15.2388 59.2725 14.56ZM21.1575 52.85L7.56004 55.7025L10.6575 42.3675L37.905 15.225L48.405 25.725L21.1575 52.85ZM50.75 23.1875L40.25 12.6875L46.34 6.63251L56.665 17.1325L50.75 23.1875Z" fill="black"/>
</g>
<defs>
<clipPath id="clip0_947_623">
<rect width="63" height="63" fill="white"/>
</clipPath>
</defs>
</svg>
