<svg width="587" height="449" viewBox="0 0 587 449" fill="none" xmlns="http://www.w3.org/2000/svg">
<path d="M225.256 149.494C224.812 149.05 224.285 148.698 223.705 148.458C223.125 148.218 222.503 148.094 221.875 148.094C221.247 148.094 220.625 148.218 220.045 148.458C219.465 148.698 218.938 149.05 218.494 149.494C218.05 149.938 217.698 150.465 217.458 151.045C217.218 151.625 217.094 152.247 217.094 152.875C217.094 153.503 217.218 154.125 217.458 154.705C217.698 155.285 218.05 155.812 218.494 156.256L231.95 169.702C228.492 174.545 226.638 180.349 226.65 186.3V243.6C226.65 251.198 229.669 258.486 235.041 263.859C240.414 269.232 247.702 272.25 255.3 272.25H312.6C318.551 272.262 324.355 270.408 329.198 266.95L337.392 275.144C331.618 279.475 324.593 281.811 317.375 281.8H253.046C258.299 287.664 265.92 291.35 274.4 291.35H317.375C327.127 291.366 336.591 288.05 344.201 281.953L361.744 299.506C362.641 300.402 363.857 300.906 365.125 300.906C366.393 300.906 367.609 300.402 368.506 299.506C369.402 298.609 369.906 297.393 369.906 296.125C369.906 294.857 369.402 293.641 368.506 292.744L225.256 149.494V149.494ZM279.003 216.765C275.764 217.63 272.812 219.337 270.446 221.711L238.836 253.312C237.1 250.371 236.19 247.016 236.2 243.6V186.3C236.2 182.767 237.165 179.443 238.845 176.597L279.003 216.755V216.765ZM331.7 186.3V242.444L340.276 251.02C340.916 248.652 341.25 246.169 341.25 243.6V186.3C341.25 178.702 338.232 171.414 332.859 166.041C327.486 160.669 320.198 157.65 312.6 157.65H255.3C252.731 157.65 250.239 157.984 247.88 158.624L256.446 167.2H312.6C317.666 167.2 322.524 169.212 326.106 172.794C329.688 176.376 331.7 181.234 331.7 186.3ZM348.861 259.606L356.158 266.902C358.925 261.118 360.358 254.787 360.35 248.375V205.4C360.35 196.92 356.664 189.289 350.8 184.046V248.375C350.791 252.201 350.135 255.998 348.861 259.606V259.606ZM307.825 200.625C310.358 200.625 312.787 199.619 314.578 197.828C316.369 196.037 317.375 193.608 317.375 191.075C317.375 188.542 316.369 186.113 314.578 184.322C312.787 182.531 310.358 181.525 307.825 181.525C305.292 181.525 302.863 182.531 301.072 184.322C299.281 186.113 298.275 188.542 298.275 191.075C298.275 193.608 299.281 196.037 301.072 197.828C302.863 199.619 305.292 200.625 307.825 200.625V200.625ZM290.702 228.454L322.303 260.064C319.364 261.798 316.012 262.708 312.6 262.7H255.3C251.767 262.7 248.443 261.735 245.597 260.055L277.198 228.454C278.989 226.663 281.418 225.658 283.95 225.658C286.482 225.658 288.911 226.663 290.702 228.454Z" fill="#686868"/>
</svg>
