<svg width="191" height="191" viewBox="0 0 191 191" fill="none" xmlns="http://www.w3.org/2000/svg">
<g clip-path="url(#clip0_908_624)">
<path d="M172.484 147.654C167.367 143.093 162.888 137.864 159.167 132.108C155.104 124.164 152.669 115.487 152.004 106.589V80.3792C152.039 66.4023 146.969 52.8936 137.747 42.3912C128.524 31.8889 115.784 25.1158 101.92 23.3444V16.5003C101.92 14.6218 101.173 12.8202 99.8451 11.4919C98.5168 10.1636 96.7153 9.41736 94.8367 9.41736C92.9582 9.41736 91.1567 10.1636 89.8284 11.4919C88.5001 12.8202 87.7538 14.6218 87.7538 16.5003V23.4506C74.0138 25.3496 61.4275 32.1636 52.3261 42.6307C43.2248 53.0978 38.225 66.5086 38.253 80.3792V106.589C37.5885 115.487 35.1534 124.164 31.0905 132.108C27.4343 137.851 23.0271 143.079 17.9858 147.654C17.4198 148.151 16.9663 148.763 16.6552 149.449C16.3442 150.135 16.1828 150.879 16.1819 151.633V158.848C16.1819 160.255 16.7409 161.605 17.7358 162.6C18.7308 163.595 20.0803 164.154 21.4874 164.154H168.982C170.389 164.154 171.739 163.595 172.733 162.6C173.728 161.605 174.287 160.255 174.287 158.848V151.633C174.286 150.879 174.125 150.135 173.814 149.449C173.503 148.763 173.049 148.151 172.484 147.654ZM27.2174 153.543C32.1538 148.774 36.5 143.43 40.163 137.626C45.2808 128.031 48.2669 117.444 48.9172 106.589V80.3792C48.7067 74.1612 49.7497 67.9646 51.984 62.1581C54.2183 56.3517 57.5982 51.0542 61.9224 46.5812C66.2466 42.1082 71.4267 38.5511 77.1543 36.1217C82.8818 33.6923 89.0397 32.4403 95.2612 32.4403C101.483 32.4403 107.641 33.6923 113.368 36.1217C119.096 38.5511 124.276 42.1082 128.6 46.5812C132.924 51.0542 136.304 56.3517 138.538 62.1581C140.773 67.9646 141.816 74.1612 141.605 80.3792V106.589C142.256 117.444 145.242 128.031 150.359 137.626C154.022 143.43 158.369 148.774 163.305 153.543H27.2174Z" fill="black"/>
<path d="M95.5 181.874C98.8422 181.797 102.049 180.541 104.554 178.327C107.06 176.113 108.701 173.085 109.188 169.778H81.2811C81.7824 173.175 83.5006 176.274 86.1161 178.5C88.7316 180.725 92.0664 181.924 95.5 181.874V181.874Z" fill="black"/>
</g>
<defs>
<clipPath id="clip0_908_624">
<rect width="191" height="191" fill="white"/>
</clipPath>
</defs>
</svg>
