<svg width="63" height="63" viewBox="0 0 63 63" fill="none" xmlns="http://www.w3.org/2000/svg">
<g clip-path="url(#clip0_947_628)">
<path d="M31.5 59.0625C24.19 59.0625 17.1793 56.1586 12.0104 50.9896C6.8414 45.8207 3.9375 38.81 3.9375 31.5C3.9375 24.19 6.8414 17.1793 12.0104 12.0104C17.1793 6.8414 24.19 3.9375 31.5 3.9375C38.81 3.9375 45.8207 6.8414 50.9896 12.0104C56.1586 17.1793 59.0625 24.19 59.0625 31.5C59.0625 38.81 56.1586 45.8207 50.9896 50.9896C45.8207 56.1586 38.81 59.0625 31.5 59.0625ZM31.5 63C39.8543 63 47.8665 59.6813 53.7739 53.7739C59.6813 47.8665 63 39.8543 63 31.5C63 23.1457 59.6813 15.1335 53.7739 9.22614C47.8665 3.31874 39.8543 0 31.5 0C23.1457 0 15.1335 3.31874 9.22614 9.22614C3.31874 15.1335 0 23.1457 0 31.5C0 39.8543 3.31874 47.8665 9.22614 53.7739C15.1335 59.6813 23.1457 63 31.5 63Z" fill="black"/>
<path d="M43.1944 19.5694C43.1663 19.5966 43.14 19.6255 43.1156 19.656L29.4407 37.0794L21.1995 28.8343C20.6397 28.3127 19.8992 28.0287 19.1342 28.0422C18.3691 28.0557 17.6392 28.3656 17.0981 28.9067C16.557 29.4477 16.2471 30.1777 16.2336 30.9428C16.2201 31.7078 16.5041 32.4483 17.0257 33.0081L27.4444 43.4306C27.725 43.7108 28.0593 43.9316 28.4271 44.0797C28.7949 44.2279 29.1889 44.3005 29.5854 44.2932C29.9819 44.2858 30.3728 44.1987 30.7349 44.037C31.097 43.8752 31.4228 43.6423 31.6929 43.3519L47.4114 23.7038C47.9467 23.142 48.2393 22.3922 48.2261 21.6164C48.2128 20.8406 47.8948 20.1011 47.3408 19.5579C46.7867 19.0147 46.0411 18.7114 45.2652 18.7136C44.4893 18.7157 43.7454 19.0231 43.1944 19.5694Z" fill="black"/>
</g>
<defs>
<clipPath id="clip0_947_628">
<rect width="63" height="63" fill="white"/>
</clipPath>
</defs>
</svg>
