<svg width="54" height="55" viewBox="0 0 54 55" fill="none" xmlns="http://www.w3.org/2000/svg">
<path d="M47.9672 45.896L34.2721 31.9473C36.3973 29.1489 37.5469 25.7275 37.5469 22.1289C37.5469 17.8213 35.8963 13.7822 32.9115 10.7368C29.9268 7.69141 25.9506 6.01562 21.7266 6.01562C17.5025 6.01562 13.5264 7.69678 10.5416 10.7368C7.55156 13.7769 5.90625 17.8213 5.90625 22.1289C5.90625 26.4312 7.55684 30.481 10.5416 33.521C13.5264 36.5664 17.4973 38.2422 21.7266 38.2422C25.2598 38.2422 28.6137 37.0713 31.3611 34.9121L45.0563 48.8555C45.0964 48.8964 45.1441 48.9289 45.1966 48.951C45.2491 48.9732 45.3053 48.9846 45.3621 48.9846C45.4189 48.9846 45.4752 48.9732 45.5277 48.951C45.5801 48.9289 45.6278 48.8964 45.668 48.8555L47.9672 46.5191C48.0074 46.4781 48.0392 46.4296 48.061 46.3761C48.0827 46.3227 48.0939 46.2654 48.0939 46.2075C48.0939 46.1497 48.0827 46.0924 48.061 46.0389C48.0392 45.9855 48.0074 45.9369 47.9672 45.896V45.896ZM30.0797 30.6367C27.8438 32.9087 24.8801 34.1602 21.7266 34.1602C18.573 34.1602 15.6094 32.9087 13.3734 30.6367C11.1428 28.3594 9.91406 25.3408 9.91406 22.1289C9.91406 18.917 11.1428 15.8931 13.3734 13.6211C15.6094 11.3491 18.573 10.0977 21.7266 10.0977C24.8801 10.0977 27.849 11.3438 30.0797 13.6211C32.3104 15.8984 33.5391 18.917 33.5391 22.1289C33.5391 25.3408 32.3104 28.3648 30.0797 30.6367Z" fill="#939393"/>
</svg>
